# xmcd
#
# Track frame offsets:
#	180
#	21406
#	45701
#	67685
#
# Disc length: 1083 seconds
#
# Revision: 1
# Processed by: cddbd v1.4PL0 Copyright (c) Steve Scherf et al.
# Submitted via: audiograbber 1.81.03
#
DISCID=2b043904
DTITLE=T E X - Voodoo Hours [CD Single)
DYEAR=1995
DGENRE=Blues
TTITLE0=Foxy Lady
TTITLE1=Red House
TTITLE2=Little Wing
TTITLE3=Fire
EXTD=
EXTT0=
EXTT1=
EXTT2=
EXTT3=
PLAYORDER=
